<svg width="37" height="37" viewBox="0 0 37 37" fill="none" xmlns="http://www.w3.org/2000/svg">
<g id="gg:profile">
<g id="Group">
<path id="Vector" fill-rule="evenodd" clip-rule="evenodd" d="M24.6666 13.875C24.6666 15.5105 24.0169 17.079 22.8604 18.2355C21.7039 19.392 20.1354 20.0417 18.4999 20.0417C16.8644 20.0417 15.2959 19.392 14.1394 18.2355C12.983 17.079 12.3333 15.5105 12.3333 13.875C12.3333 12.2395 12.983 10.671 14.1394 9.5145C15.2959 8.35803 16.8644 7.70833 18.4999 7.70833C20.1354 7.70833 21.7039 8.35803 22.8604 9.5145C24.0169 10.671 24.6666 12.2395 24.6666 13.875ZM21.5833 13.875C21.5833 14.6927 21.2584 15.477 20.6802 16.0552C20.1019 16.6335 19.3177 16.9583 18.4999 16.9583C17.6822 16.9583 16.8979 16.6335 16.3197 16.0552C15.7414 15.477 15.4166 14.6927 15.4166 13.875C15.4166 13.0572 15.7414 12.273 16.3197 11.6947C16.8979 11.1165 17.6822 10.7917 18.4999 10.7917C19.3177 10.7917 20.1019 11.1165 20.6802 11.6947C21.2584 12.273 21.5833 13.0572 21.5833 13.875Z" fill="black"/>
<path id="Vector_2" fill-rule="evenodd" clip-rule="evenodd" d="M18.5 1.54166C9.13434 1.54166 1.54163 9.13437 1.54163 18.5C1.54163 27.8656 9.13434 35.4583 18.5 35.4583C27.8656 35.4583 35.4583 27.8656 35.4583 18.5C35.4583 9.13437 27.8656 1.54166 18.5 1.54166ZM4.62496 18.5C4.62496 21.7221 5.72417 24.6882 7.56646 27.0439C8.86027 25.3448 10.5294 23.9679 12.4434 23.0206C14.3574 22.0734 16.4646 21.5815 18.6002 21.5833C20.7081 21.5813 22.7887 22.0605 24.6835 22.9844C26.5782 23.9082 28.2371 25.2524 29.5337 26.9144C30.8694 25.1625 31.7688 23.1176 32.1574 20.9491C32.546 18.7805 32.4126 16.5506 31.7683 14.4438C31.124 12.3371 29.9873 10.414 28.4522 8.83381C26.9171 7.25358 25.0278 6.06161 22.9405 5.35653C20.8533 4.65145 18.6282 4.45352 16.4493 4.77912C14.2704 5.10472 12.2004 5.9445 10.4105 7.22896C8.62057 8.51341 7.16225 10.2056 6.15619 12.1656C5.15012 14.1256 4.62524 16.2969 4.62496 18.5ZM18.5 32.375C15.3148 32.3798 12.2258 31.284 9.75563 29.2732C10.7499 27.8498 12.0733 26.6877 13.6132 25.8856C15.1531 25.0836 16.8639 24.6654 18.6002 24.6667C20.3148 24.6653 22.0049 25.073 23.5303 25.8559C25.0557 26.6389 26.3723 27.7744 27.3707 29.1683C24.8814 31.2445 21.7414 32.3795 18.5 32.375Z" fill="black"/>
</g>
</g>
</svg>
