<svg width="32" height="32" viewBox="0 0 32 32" fill="none" xmlns="http://www.w3.org/2000/svg">
<path id="Vector" d="M23.4402 20.6277H21.959L21.434 20.1214C22.6057 18.7601 23.4621 17.1566 23.9419 15.4257C24.4216 13.6948 24.5128 11.8792 24.209 10.1089C23.3277 4.89645 18.9777 0.733949 13.7277 0.0964494C11.882 -0.137052 10.0073 0.0547712 8.24712 0.657241C6.48694 1.25971 4.88791 2.25686 3.57238 3.57238C2.25686 4.88791 1.25971 6.48694 0.657241 8.24712C0.0547712 10.0073 -0.137052 11.882 0.0964494 13.7277C0.733949 18.9777 4.89645 23.3277 10.1089 24.209C11.8792 24.5128 13.6948 24.4216 15.4257 23.9419C17.1566 23.4621 18.7601 22.6057 20.1214 21.434L20.6277 21.959V23.4402L28.5965 31.409C29.3652 32.1777 30.6215 32.1777 31.3902 31.409C32.159 30.6402 32.159 29.384 31.3902 28.6152L23.4402 20.6277ZM12.1902 20.6277C7.52145 20.6277 3.7527 16.8589 3.7527 12.1902C3.7527 7.52145 7.52145 3.7527 12.1902 3.7527C16.8589 3.7527 20.6277 7.52145 20.6277 12.1902C20.6277 16.8589 16.8589 20.6277 12.1902 20.6277Z" fill="black"/>
</svg>
